<?xml version="1.0" encoding="iso-8859-1"?>
<!-- Generator: Adobe Illustrator 23.1.1, SVG Export Plug-In . SVG Version: 6.00 Build 0)  -->
<svg version="1.1" id="_x31_-outline-expand"
 width="70px" height="70px" fill="white"
 xmlns="http://www.w3.org/2000/svg" xmlns:xlink="http://www.w3.org/1999/xlink"
	 x="0px" y="0px" viewBox="0 0 64 64" style="enable-background:new 0 0 64 64;" xml:space="preserve">
<path d="M17,23v2h2v-2h2v2h2v-2h2v2h2v-2h2v2h2v-2h1c0.553,0,1-0.447,1-1v-5c0-4.963-4.037-9-9-9s-9,4.037-9,9v5
	c0,0.553,0.447,1,1,1H17z M17,17c0-3.859,3.141-7,7-7s7,3.141,7,7v4H17V17z"/>
<path d="M27,13h-2v2c0,0.266,0.105,0.52,0.293,0.707l1,1l1.414-1.414L27,14.586V13z"/>
<path d="M21,14.586l-0.707,0.707l1.414,1.414l1-1C22.895,15.52,23,15.266,23,15v-2h-2V14.586z"/>
<path d="M30,26c0,1.103-0.897,2-2,2h-8c-1.103,0-2-0.897-2-2h-2c0,2.206,1.794,4,4,4h8c2.206,0,4-1.794,4-4H30z"/>
<path d="M53.428,51.134l-1.81-1.045C51.861,49.437,52,48.735,52,48s-0.139-1.437-0.382-2.088l1.81-1.045l0.5,0.866l1.732-1l-2-3.465
	l-1.732,1l0.5,0.866l-1.807,1.043c-0.899-1.085-2.174-1.843-3.621-2.087V40h1v-2h-4v2h1v2.09c-1.447,0.244-2.722,1.002-3.621,2.087
	l-1.807-1.043l0.5-0.866l-1.732-1l-2,3.465l1.732,1l0.5-0.866l1.81,1.045C40.139,46.563,40,47.265,40,48s0.139,1.437,0.382,2.088
	l-1.81,1.045l-0.5-0.866l-1.732,1l2,3.465l1.732-1l-0.5-0.866l1.807-1.043c0.899,1.085,2.174,1.843,3.621,2.087V56h-1v2h4v-2h-1
	v-2.09c1.447-0.244,2.722-1.002,3.621-2.087l1.807,1.043l-0.5,0.866l1.732,1l2-3.465l-1.732-1L53.428,51.134z M46,52
	c-2.206,0-4-1.794-4-4s1.794-4,4-4s4,1.794,4,4S48.206,52,46,52z"/>
<path d="M50.402,34.72L53.979,17.2c0.045-0.22,0.015-0.447-0.085-0.647l-7-14C46.725,2.214,46.379,2,46,2H12
	c-0.379,0-0.725,0.214-0.895,0.553l-7,14c-0.1,0.2-0.13,0.429-0.085,0.647l9,44C13.115,61.666,13.525,62,14,62h32
	c7.72,0,14-6.28,14-14C60,41.819,55.969,36.57,50.402,34.72z M51.951,17.139l-3.49,17.092C47.66,34.087,46.841,34,46,34
	c-2.036,0-3.966,0.447-5.713,1.232L43.979,17.2c0.045-0.219,0.015-0.447-0.085-0.647L37.618,4h7.764L51.951,17.139z M33.184,60
	H14.816L6.049,17.138L12.618,4H34h1.382l6.569,13.138l-3.974,19.407C34.369,39.079,32,43.265,32,48c0,2.71,0.787,5.234,2.125,7.38
	L33.184,60z M35.224,60l0.512-2.512c0.904,0.977,1.943,1.823,3.091,2.512H35.224z M46,60c-6.617,0-12-5.383-12-12s5.383-12,12-12
	s12,5.383,12,12S52.617,60,46,60z"/>
<rect x="24" y="56" width="2" height="2"/>
<rect x="20" y="56" width="2" height="2"/>
<rect x="16" y="56" width="2" height="2"/>
</svg>
