<?xml version="1.0" encoding="UTF-8"?>
<!DOCTYPE svg PUBLIC "-//W3C//DTD SVG 1.1//EN" "http://www.w3.org/Graphics/SVG/1.1/DTD/svg11.dtd">
<!-- Creator: CorelDRAW -->
<svg xmlns="http://www.w3.org/2000/svg" xml:space="preserve" width="45px" height="45px" style="shape-rendering:geometricPrecision; text-rendering:geometricPrecision; image-rendering:optimizeQuality; fill-rule:evenodd; clip-rule:evenodd"
viewBox="0 0 1.70666 1.70666"
 xmlns:xlink="http://www.w3.org/1999/xlink">
 <defs>
  <style type="text/css">
   <![CDATA[
    .fil0 {fill:black}
   ]]>
  </style>
 </defs>
 <g id="Layer_x0020_1">
  <metadata id="CorelCorpID_0Corel-Layer"/>
  <path class="fil0" d="M0.779331 0.89522c-0.0262677,0 -0.0317362,-0.0270551 -0.0341496,-0.0389528l-0.000700787 -0.00342913c-0.00805512,-0.0369055 -0.0216575,-0.0692047 -0.0382795,-0.0908661 -0.0258661,-0.0337717 -0.0583071,-0.0483819 -0.111949,-0.050378 -0.00654724,-0.000232283 -0.0124921,-0.00401969 -0.0155433,-0.00998031 -0.100697,-0.194496 -0.248795,-0.303366 -0.355299,-0.360445 -0.115272,-0.0617992 -0.207106,-0.0776496 -0.208035,-0.0778189 -0.00796457,-0.00132677 -0.0141614,-0.00785433 -0.0152165,-0.0160394 -0.0010748,-0.0082126 0.00324016,-0.0161457 0.0106142,-0.0195591 0.128402,-0.0595866 0.249783,-0.0906378 0.371043,-0.0949331 0.00514173,-0.000153543 0.0097874,-0.000295276 0.014126,-0.000444882 0.0337323,-0.00105118 0.0506929,-0.00156299 0.0642165,0.00883858 0.0143504,0.0110315 0.0168465,0.0279409 0.0214252,0.0586142 0.00188189,0.0126142 0.00421654,0.0282756 0.00786614,0.0475236 0.00914567,0.0475197 0.0333228,0.0793898 0.0646693,0.085248 0.020437,0.00381102 0.0401811,-0.00452756 0.0503189,-0.021248 0.0072874,-0.0119606 0.00557087,-0.0292441 0.00319685,-0.0531378 -0.00418898,-0.0425079 -0.00993307,-0.100677 0.0318386,-0.178016 0.00332677,-0.00615354 0.00970866,-0.00987795 0.0165827,-0.00970866 0.00687795,0.000204724 0.0130472,0.00429528 0.0160236,0.0106142l0.0335709 0.071189c0.0128189,-0.0133701 0.0306181,-0.0214961 0.0500039,-0.0221063 0.0181496,-0.000511811 0.0353661,0.00551575 0.0486614,0.0166142l0.0366299 -0.0714803c0.00416929,-0.00814961 0.0120197,-0.0127165 0.0205,-0.011874 0.00914567,0.000858268 0.0217047,0.00206299 0.044122,0.0768307 0.0125118,0.0410118 0.011378,0.0759449 0.0104488,0.104004 -0.000826772,0.0258268 -0.00144094,0.0444646 0.00780315,0.0581496 0.00440157,0.0064252 0.0178425,0.0211614 0.0460276,0.017626 0.051185,-0.00646063 0.0615709,-0.0665315 0.0691457,-0.138472 0.00105512,-0.00995669 0.00204724,-0.0193307 0.00320079,-0.027878 0.00607087,-0.0427362 0.0370827,-0.0434528 0.0699291,-0.0442559 0.00347244,-9.05512e-005 0.0071378,-0.000192913 0.011,-0.000318898 0.148783,-0.00475984 0.251154,0.021311 0.38798,0.0710354 0.00738976,0.00269685 0.0123071,0.00989764 0.0122047,0.0179213 -0.000102362,0.00804331 -0.0051811,0.0151181 -0.0126339,0.0175984 -0.00115748,0.00038189 -0.115642,0.0390157 -0.238783,0.116728 -0.112213,0.0708307 -0.255012,0.189657 -0.297917,0.353437 -0.0018937,0.00724409 -0.00780315,0.0126378 -0.0150512,0.0137047 -0.0621496,0.00932677 -0.0857087,0.0214921 -0.109594,0.0566575 -0.0101969,0.0151575 -0.0194291,0.036189 -0.0252913,0.0576654 -0.00264567,0.00972441 -0.00431496,0.0191614 -0.0059685,0.0283228 -0.00418898,0.0234961 -0.00898031,0.0501299 -0.0343976,0.0527559 -0.00155512,0.000173228 -0.00297244,0.00026378 -0.00433858,0.00026378zm-0.173146 -0.220567c0.0589094,0.00406693 0.0978228,0.0236024 0.128921,0.0641535 0.0254409,0.0331457 0.0385906,0.0756299 0.0451772,0.105587 0.000574803,-0.00305512 0.0011378,-0.00612598 0.00165354,-0.0089252 0.00169291,-0.00948031 0.00361024,-0.0202362 0.00670866,-0.0315827 0.00690157,-0.0253543 0.0179882,-0.0504685 0.0304606,-0.0689528 0.0312992,-0.0460669 0.0666496,-0.0610984 0.122661,-0.0705906 0.0394409,-0.134791 0.146866,-0.260504 0.311504,-0.364276 0.0779803,-0.049122 0.15124,-0.0826378 0.197244,-0.101504 -0.109744,-0.0370591 -0.201098,-0.0559173 -0.326244,-0.0518976 -0.00396457,0.000125984 -0.00774016,0.000228346 -0.011315,0.000318898 -0.0328307,0.000779528 -0.0328937,0.00121654 -0.0344213,0.012063 -0.00109449,0.00785433 -0.00204724,0.0169488 -0.00303543,0.0265433 -0.00673622,0.0641535 -0.0169134,0.161067 -0.10115,0.17174 -0.0333071,0.00419291 -0.0634528,-0.00834252 -0.0806496,-0.0334803 -0.0162087,-0.0239567 -0.0153031,-0.051563 -0.0143307,-0.0808071 0.000866142,-0.0265433 0.00183465,-0.0566299 -0.00883071,-0.0916693 -0.00330315,-0.0110118 -0.00718898,-0.0223346 -0.0107795,-0.0318386l-0.0331181 0.0645906c-0.00305906,0.00597638 -0.00904331,0.00983858 -0.0156693,0.0100669l-0.00572047 0.000192913c-0.00685039,0.000228346 -0.0131102,-0.00336614 -0.0164961,-0.00935039 -0.00629528,-0.0111181 -0.0185157,-0.017874 -0.0319409,-0.0173307 -0.0132323,0.000444882 -0.0253543,0.00804331 -0.0308465,0.0194055 -0.00301181,0.00621654 -0.0091063,0.0102126 -0.015878,0.0104409l-0.0115433 0.00038189c-0.00722441,0.000318898 -0.0139764,-0.00391339 -0.0171378,-0.0105906l-0.0256417 -0.0543661c-0.0186654,0.0499409 -0.0148268,0.0889724 -0.0116024,0.121504 0.00284646,0.0289252 0.00532677,0.0538937 -0.00854724,0.0767165 -0.0181024,0.029874 -0.0527126,0.0449291 -0.0881024,0.0383386 -0.0467677,-0.0087126 -0.0819449,-0.0516929 -0.0941102,-0.114953 -0.00381496,-0.0200433 -0.0062126,-0.0361496 -0.00812992,-0.0490591 -0.00229528,-0.0154764 -0.00469291,-0.0314921 -0.00729134,-0.0343819 -0.00354724,-0.00237795 -0.0225433,-0.00181496 -0.0409213,-0.00124016 -0.00437795,0.000149606 -0.00906693,0.000291339 -0.014122,0.00042126 -0.100323,0.00357874 -0.201098,0.026378 -0.306547,0.0695787 0.0398425,0.0117913 0.0980906,0.0326969 0.164075,0.0680433 0.109346,0.0586063 0.260764,0.169598 0.365717,0.366709z"/>
  <path class="fil0" d="M1.3632 1.35651c-0.0300827,0 -0.0545945,-0.0250118 -0.0545945,-0.055752 0,-0.0307598 0.0245118,-0.0557717 0.0545945,-0.0557717 0.0300827,0 0.0545709,0.0250118 0.0545709,0.0557717 0,0.0307165 -0.0244882,0.055752 -0.0545709,0.055752zm0 -0.0740276c-0.00987008,0 -0.0178622,0.00818898 -0.0178622,0.018252 0,0.0100669 0.00801575,0.0182323 0.0178622,0.0182323 0.00984646,0 0.0178622,-0.00818898 0.0178622,-0.0182323 0,-0.010063 -0.00800787,-0.018252 -0.0178622,-0.018252z"/>
  <path class="fil0" d="M1.16402 1.24547c-0.0400551,0 -0.0726772,-0.0333071 -0.0726772,-0.0742559 0,-0.0409488 0.0326063,-0.0742598 0.0726772,-0.0742598 0.0400787,0 0.0726969,0.033311 0.0726969,0.0742598 0,0.0409488 -0.0326181,0.0742559 -0.0726969,0.0742559zm0 -0.11102c-0.0198228,0 -0.0359685,0.0164882 -0.0359685,0.0367638 0,0.0202756 0.0161457,0.0367598 0.0359685,0.0367598 0.0198425,0 0.0359646,-0.0164843 0.0359646,-0.0367598 0,-0.0202756 -0.016122,-0.0367638 -0.0359646,-0.0367638z"/>
  <path class="fil0" d="M1.35417 1.18997c-0.0251063,0 -0.0455276,-0.0208661 -0.0455276,-0.0465118 0,-0.0256654 0.0204213,-0.0465118 0.0455276,-0.0465118 0.0251024,0 0.0455,0.0208386 0.0455,0.0465118 0,0.0256457 -0.0204213,0.0465118 -0.0455,0.0465118zm0 -0.0555197c-0.00485433,0 -0.0088189,0.00403937 -0.0088189,0.00900787 0,0.00496457 0.00394094,0.00899213 0.0088189,0.00899213 0.00487795,0 0.00881496,-0.00401969 0.00881496,-0.00899213 0,-0.00497638 -0.0039685,-0.00900787 -0.00881496,-0.00900787z"/>
  <path class="fil0" d="M1.29004 1.09005c-0.00498031,0 -0.00993307,-0.00204331 -0.0135472,-0.00608661 -0.00685039,-0.0076378 -0.00633858,-0.0195197 0.00115354,-0.0265039l0.031689 -0.0296024c0.00747638,-0.00698819 0.0190984,-0.00646063 0.0259331,0.00117717 0.00683465,0.0076378 0.00633858,0.0195354 -0.00115354,0.0265315l-0.0316929 0.0295748c-0.00352756,0.0032874 -0.00796457,0.00490945 -0.0123819,0.00490945z"/>
  <path class="fil0" d="M1.43048 1.00516c-0.00412992,0 -0.00827953,-0.00140551 -0.0117047,-0.00431102 -0.0391535,-0.033248 -0.0865354,-0.0534961 -0.137031,-0.0585906 -0.0100984,-0.00103543 -0.0174646,-0.0102087 -0.0164724,-0.0205315 0.00101181,-0.0102953 0.00997244,-0.0178701 0.0200827,-0.0168189 0.0578346,0.00583071 0.112075,0.0290354 0.156878,0.0670787 0.00780315,0.00661417 0.00887795,0.0184449 0.0023937,0.0264252 -0.00364173,0.00445669 -0.0088622,0.00674803 -0.0141457,0.00674803z"/>
  <path class="fil0" d="M1.5279 1.1946c-0.00941732,0 -0.0174252,-0.00734646 -0.0182756,-0.0170945 -0.00446457,-0.0513071 -0.0235984,-0.0996024 -0.0552953,-0.13978 -0.00638189,-0.00805906 -0.00514173,-0.019878 0.00274803,-0.026378 0.00788976,-0.0065 0.0194291,-0.00524409 0.0258071,0.00282283 0.036315,0.0459646 0.0581811,0.101291 0.0632992,0.160008 0.000889764,0.010315 -0.00656299,0.0194331 -0.0166811,0.0203661 -0.000523622,3.93701e-005 -0.00106299,5.51181e-005 -0.00160236,5.51181e-005z"/>
  <path class="fil0" d="M1.46615 1.3975c-0.00412992,0 -0.00827953,-0.00140945 -0.0117047,-0.00433465 -0.00780315,-0.00661417 -0.00888189,-0.0184488 -0.00237402,-0.0264055 0.0319409,-0.0392835 0.0516614,-0.0868071 0.0570669,-0.137441 0.00111811,-0.0102953 0.0101378,-0.0177283 0.0202362,-0.0166142 0.0100748,0.00111417 0.0173622,0.010378 0.0162717,0.0206732 -0.00619685,0.0579606 -0.0288031,0.112382 -0.0653504,0.157358 -0.00364173,0.00447244 -0.0088622,0.00676378 -0.0141457,0.00676378z"/>
  <path class="fil0" d="M1.28351 1.49683c-0.00931102,0 -0.0173031,-0.00724409 -0.018252,-0.0169291 -0.000992126,-0.0102953 0.00638189,-0.0194921 0.0164724,-0.0205276 0.0492244,-0.00496457 0.0956378,-0.0244213 0.134228,-0.0562756 0.00788976,-0.00650787 0.0194449,-0.00524409 0.0258307,0.00282283 0.00635827,0.00806299 0.00511811,0.0198543 -0.00277165,0.0263819 -0.044185,0.0364449 -0.0973268,0.0587165 -0.153677,0.0644213 -0.000614173,6.29921e-005 -0.00124016,0.000106299 -0.00183071,0.000106299z"/>
  <path class="fil0" d="M1.22923 1.49683c-0.000598425,0 -0.00121654,-4.33071e-005 -0.0018189,-0.000106299 -0.0563386,-0.00570472 -0.109516,-0.0279606 -0.153673,-0.0644213 -0.00790551,-0.00652756 -0.00912205,-0.0183189 -0.00277165,-0.0263819 0.00635039,-0.00805906 0.0179252,-0.00929921 0.0258071,-0.00282283 0.0386102,0.0318543 0.0850276,0.051311 0.134244,0.0562756 0.0100748,0.00103543 0.0174646,0.0102087 0.0164567,0.0205276 -0.000929134,0.00968504 -0.00890945,0.0169291 -0.0182441,0.0169291z"/>
  <path class="fil0" d="M1.04656 1.3975c-0.00526772,0 -0.0105118,-0.00229134 -0.0141417,-0.00675591 -0.0365669,-0.0449764 -0.0591339,-0.0993976 -0.0653228,-0.157358 -0.00109055,-0.0102953 0.00619685,-0.0195827 0.016248,-0.0206732 0.0100512,-0.00109055 0.0191575,0.0063189 0.0202362,0.0166142 0.00540551,0.0506339 0.0251496,0.0981575 0.0570906,0.137441 0.00646063,0.00795669 0.00540551,0.0197677 -0.00239764,0.0264055 -0.00343307,0.00291732 -0.00758268,0.00432677 -0.0117126,0.00432677z"/>
  <path class="fil0" d="M0.98485 1.1946c-0.000535433,0 -0.00109055,-2.3622e-005 -0.00165354,-6.29921e-005 -0.0100984,-0.000925197 -0.0175709,-0.0100433 -0.0166614,-0.0203661 0.0051063,-0.0587165 0.0270118,-0.114043 0.0632795,-0.160008 0.00638583,-0.00805906 0.0179252,-0.00929921 0.0258071,-0.00282283 0.00790551,0.00650787 0.00912205,0.0183189 0.00277165,0.026378 -0.0317126,0.0401535 -0.0508346,0.0884724 -0.0552953,0.13978 -0.000818898,0.00975591 -0.00885827,0.0171024 -0.018248,0.0171024z"/>
  <path class="fil0" d="M1.08226 1.00516c-0.00526772,0 -0.0104882,-0.00229134 -0.014122,-0.00675591 -0.00648819,-0.00798031 -0.00543307,-0.0197874 0.00237008,-0.0264252 0.0447992,-0.0380433 0.0990669,-0.0612244 0.156898,-0.0670827 0.0100984,-0.0010315 0.0190827,0.00652756 0.0200709,0.0168228 0.00101575,0.0102992 -0.00638189,0.0194961 -0.0164567,0.0205315 -0.0505039,0.00509449 -0.0978898,0.0253504 -0.137031,0.0585906 -0.00343307,0.00291339 -0.00758268,0.0043189 -0.0117283,0.0043189z"/>
  <path class="fil0" d="M1.25635 0.986445c-0.0251024,0 -0.0455039,-0.0208661 -0.0455039,-0.0465276l0 -0.0438543c-0.018437,-0.0150709 -0.0286142,-0.0382756 -0.0270079,-0.0629291 0.00239764,-0.0370079 0.0315276,-0.0667205 0.0677441,-0.0690748 0.0203189,-0.00134646 0.0396811,0.00572835 0.0544843,0.0199173 0.0145984,0.0139961 0.0229567,0.0337441 0.0229567,0.0541732 0,0.0225906 -0.0101732,0.0439016 -0.0271457,0.057874l0 0.0439016c0,0.0256535 -0.0204173,0.0465197 -0.0455276,0.0465197zm0 -0.185043c-0.000787402,0 -0.00159055,2.3622e-005 -0.00239764,8.66142e-005 -0.0176102,0.00116142 -0.0322913,0.0161457 -0.0334685,0.0341299 -0.000929134,0.014126 0.00594882,0.0272874 0.0179016,0.0343858 0.00565748,0.00335039 0.00916929,0.00953937 0.00916929,0.0162323l0 0.0537126c0,0.00494882 0.00394094,0.00900787 0.00879528,0.00900787 0.00485433,0 0.0088189,-0.00404331 0.0088189,-0.00900787l0 -0.0537126c0,-0.00667717 0.00348819,-0.0128661 0.00914567,-0.0162323 0.0111024,-0.00659055 0.018,-0.0187795 0.018,-0.0318543 0,-0.0102598 -0.00402362,-0.0197677 -0.011374,-0.0268031 -0.00672835,-0.00647638 -0.0153583,-0.00994488 -0.0245906,-0.00994488z"/>
  <path class="fil0" d="M1.25644 1.64333c-0.00159449,0 -0.00320079,-6.69291e-005 -0.00480709,-0.000169291 -0.0362323,-0.00235433 -0.0653701,-0.0320669 -0.0677677,-0.0690787 -0.0016063,-0.0246732 0.00857087,-0.047878 0.0270079,-0.0629252l0 -0.0438543c0,-0.0256614 0.0203976,-0.0465276 0.0455039,-0.0465276 0.0251024,0 0.0455276,0.0208661 0.0455276,0.0465276l0 0.0439016c0.0169724,0.0139567 0.0271457,0.0352835 0.0271457,0.0578583 0,0.0204646 -0.00836614,0.0401929 -0.0229567,0.054189 -0.0136496,0.0130433 -0.0310984,0.0200787 -0.0496535,0.0200787zm-8.66142e-005 -0.185043c-0.00483071,0 -0.00879528,0.00401969 -0.00879528,0.00900787l0 0.0537126c0,0.00667717 -0.00351181,0.0128661 -0.00916929,0.0162323 -0.0119528,0.0070748 -0.0188307,0.020252 -0.0179016,0.0343858 0.00117717,0.0179843 0.0158819,0.0329646 0.0334685,0.0341299 0.0100157,0.000625984 0.0196732,-0.00284252 0.0270118,-0.00987795 0.00732677,-0.00700787 0.011374,-0.0165276 0.011374,-0.0267992 0,-0.0130512 -0.00689764,-0.0252402 -0.018,-0.0318386 -0.00565748,-0.00335039 -0.00914567,-0.00953937 -0.00914567,-0.0162323l0 -0.0537126c-2.3622e-005,-0.00498819 -0.00396457,-0.00900787 -0.00884252,-0.00900787z"/>
  <path class="fil0" d="M1.43881 1.06365c-0.0116457,0 -0.023311,-0.00455118 -0.0321929,-0.0135984 -0.00859055,-0.00877559 -0.0133346,-0.0204685 -0.0133346,-0.0329055 0,-0.0124213 0.00472835,-0.0241024 0.0133346,-0.0328858l0.0303504 -0.0310354c-0.00259843,-0.0239606 0.00627165,-0.0477283 0.0244646,-0.064 0.027311,-0.0244213 0.0684685,-0.0243819 0.0957402,0.000102362 0.0152795,0.013752 0.0240748,0.0327362 0.0247165,0.0534567 0.000637795,0.0204449 -0.00712598,0.0404646 -0.021252,0.0549094l0 0c-0.0156535,0.0159764 -0.0375591,0.023689 -0.0592598,0.0212835l-0.0303701 0.0310591c-0.00886614,0.00907087 -0.0205315,0.0136142 -0.0321969,0.0136142zm0.0704252 -0.155083c-0.00848031,0 -0.0169961,0.0029685 -0.023622,0.00890551 -0.0104252,0.00930315 -0.0146772,0.0236024 -0.0111024,0.0372638 0.00166929,0.00646063 -0.000125984,0.0133701 -0.00475197,0.0180866l-0.0371693 0.0379803c-0.00224803,0.00229528 -0.00258268,0.0049685 -0.00258268,0.00635827 0,0.0013937 0.000326772,0.00406693 0.00258268,0.00638189 0.0034252,0.00349606 0.00901969,0.00349606 0.0124449,0l0.0371693 -0.0379803c0.00464173,-0.00473228 0.0114016,-0.00658661 0.0176929,-0.00484646 0.0124291,0.00336614 0.0257283,-0.000267717 0.0347717,-0.00951575 0.00712205,-0.00726378 0.0108386,-0.0169094 0.0105276,-0.0271575 -0.000314961,-0.010252 -0.00469291,-0.019689 -0.0122835,-0.0265079 -0.00661811,-0.00597638 -0.0151457,-0.0089685 -0.0236772,-0.0089685zm0.0384252 0.0758583l4.72441e-005 0 -4.72441e-005 0z"/>
  <path class="fil0" d="M1.00345 1.53629c-0.00076378,0 -0.0015315,-2.3622e-005 -0.00229528,-4.33071e-005 -0.0202717,-0.000649606 -0.038878,-0.00964173 -0.0523228,-0.0252638 -0.0239724,-0.0278504 -0.0240118,-0.0698976 -0.000102362,-0.0978189 0.0159213,-0.0185906 0.0391693,-0.0276457 0.0626417,-0.0249961l0.0303465 -0.0310079c0.0177362,-0.0181299 0.0466181,-0.0181299 0.0643583,0 0.0086063,0.00877559 0.0133346,0.0204646 0.0133346,0.0328858 0,0.0124449 -0.00472835,0.024126 -0.0133346,0.0329055l-0.030374 0.0310551c0.00233465,0.0221457 -0.00520472,0.0445709 -0.0208504,0.0605512l0 0 0 0c-0.0135709,0.0138858 -0.0321969,0.0217323 -0.0514016,0.0217323zm-3.93701e-005 -0.111016c-0.0102244,0 -0.0200709,0.00446457 -0.0270709,0.0126378 -0.011626,0.0135591 -0.0116024,0.0347795 6.29921e-005,0.048315 0.00667323,0.00776772 0.015878,0.0122165 0.0259134,0.0125512 0.0100591,0.000318898 0.0194724,-0.00348031 0.0265945,-0.0107362l0 0c0.00904724,-0.00924803 0.0125984,-0.0228622 0.00929528,-0.0355394 -0.00169291,-0.00646063 0.000125984,-0.0133661 0.00475197,-0.0180866l0.0371693 -0.0379803c0.00223228,-0.00229134 0.00258268,-0.00496457 0.00258268,-0.00638189 0,-0.00136614 -0.000350394,-0.00406693 -0.00258268,-0.00635827 -0.0034252,-0.00349213 -0.00901969,-0.00349213 -0.0124685,0l-0.0371693 0.0379803c-0.00462992,0.00473622 -0.011378,0.00659055 -0.0176929,0.00484646 -0.00311024,-0.000850394 -0.00624803,-0.00124803 -0.00938583,-0.00124803z"/>
  <path class="fil0" d="M1.614 1.27788c-0.0221142,0 -0.0429449,-0.0104016 -0.0566378,-0.027748l-0.042937 -7.87402e-006c-0.0251024,0 -0.0455236,-0.0208661 -0.0455236,-0.0465118 0,-0.0256654 0.0204213,-0.0465276 0.0455236,-0.0465276l0.0429213 0c0.0147165,-0.0188189 0.0374094,-0.0291811 0.0615709,-0.0275787 0.0362165,0.00244094 0.0652835,0.0322087 0.0675945,0.0692441 0.00130315,0.0207362 -0.00561811,0.0405276 -0.0194961,0.0556693 -0.0136772,0.0148898 -0.0330236,0.0234606 -0.0530157,0.0234606zm-0.0995984 -0.0832756c-0.00485433,0 -0.00881496,0.00404331 -0.00881496,0.00900787 0,0.00496457 0.00393701,0.00899213 0.00881496,0.00899213l0.0525512 0c0.00654724,0 0.0125945,0.00357874 0.0158937,0.00936614 0.00644882,0.0113228 0.018378,0.0183819 0.0311614,0.0183819 0.0100354,0 0.0193661,-0.0041063 0.0262441,-0.011626 0.00687402,-0.00747244 0.0102992,-0.0172677 0.00966142,-0.0276063 -0.00114173,-0.0179843 -0.0158189,-0.0330157 -0.0334094,-0.0342087 -0.0137874,-0.00088189 -0.0266969,0.00608661 -0.0336339,0.0183189 -0.00328346,0.00579134 -0.00933071,0.00935039 -0.0158937,0.00935039l-0.0525748 7.87402e-006 0 1.5748e-005z"/>
  <path class="fil0" d="M0.898748 1.27788c-0.0200236,0 -0.0393307,-0.00854724 -0.0530236,-0.0234528 -0.0139016,-0.0151339 -0.020815,-0.0348858 -0.0195118,-0.055685 0.00233465,-0.0370118 0.0314016,-0.0667874 0.0676181,-0.0692283 0.0241772,-0.00162598 0.0468465,0.00875984 0.0615709,0.0275787l0.0429291 -7.87402e-006c0.0251024,0 0.0455,0.0208622 0.0455,0.0465276 0,0.0256457 -0.0203976,0.0465118 -0.0455,0.0465118l-0.0429449 0c-0.013689,0.0173307 -0.0345472,0.0277559 -0.0566378,0.0277559zm-3.93701e-005 -0.111047c-0.00080315,0 -0.00162992,3.93701e-005 -0.00245669,8.66142e-005 -0.0176142,0.00120079 -0.0322677,0.0162323 -0.0333858,0.0342087 -0.000661417,0.010315 0.00277165,0.0201102 0.00964567,0.0276063 0.00687402,0.00749606 0.016185,0.011626 0.0262441,0.011626 0.0127835,0 0.0247126,-0.00705118 0.0311378,-0.0183819 0.00328346,-0.00579528 0.00935433,-0.00936614 0.0158937,-0.00936614l0.0525669 -7.87402e-006c0.00485039,0 0.00881496,-0.00401969 0.00881496,-0.00899213 0,-0.00497244 -0.00394094,-0.00900787 -0.00881496,-0.00900787l-0.0525669 0c-0.00652362,0 -0.0125945,-0.00355906 -0.0158819,-0.00935039 -0.00654724,-0.0115157 -0.018315,-0.0184213 -0.0311969,-0.0184213z"/>
  <path class="fil0" d="M1.0739 1.06365c-0.0116417,0 -0.0233071,-0.00455118 -0.032189,-0.0135984l-0.0303465 -0.0310118c-0.0234724,0.00267717 -0.0467283,-0.00642126 -0.0626417,-0.0250079 -0.0239094,-0.0278976 -0.0238701,-0.0699606 0.000102362,-0.0978228 0.013437,-0.0156417 0.0320433,-0.0246102 0.0523228,-0.0252638 0.0199449,-0.000586614 0.0395787,0.00726378 0.0537205,0.0217087l0 0 0 0c0.0156535,0.0159764 0.023185,0.0384016 0.0208504,0.0605472l0.030374 0.0310591c0.0086063,0.00877559 0.0133346,0.0204646 0.0133346,0.0328858 0,0.0124449 -0.00472835,0.0241299 -0.0133346,0.0329055 -0.00888189,0.00905512 -0.0205236,0.0135984 -0.0321929,0.0135984zm-0.0563386 -0.0835984c0.00479134,0 0.00947244,0.00193307 0.0129685,0.00549606l0.0371693 0.0379803c0.00344882,0.00349606 0.00904331,0.00349606 0.0124685,0 0.00223228,-0.00229134 0.00258268,-0.00496457 0.00258268,-0.00638189 0,-0.00136614 -0.000350394,-0.00403937 -0.00258268,-0.00635827l-0.0371693 -0.0379803c-0.00464173,-0.00473228 -0.00646063,-0.0116417 -0.00475197,-0.0180866 0.00330315,-0.0126772 -0.00026378,-0.0262756 -0.00929528,-0.0355354l0 0c-0.00709843,-0.00726772 -0.0165197,-0.0109921 -0.0265945,-0.0107362 -0.0100354,0.000334646 -0.0192441,0.00478346 -0.0259134,0.0125472 -0.0116457,0.0135354 -0.0116654,0.0347598 -6.29921e-005,0.0483189 0.0091063,0.0106535 0.0230827,0.0150079 0.0364646,0.0113701 0.00155512,-0.000429134 0.00312205,-0.000633858 0.00471654,-0.000633858z"/>
  <path class="fil0" d="M1.50924 1.53627c-0.0170748,0 -0.0341496,-0.0061063 -0.0477953,-0.0182953 -0.0181929,-0.0162756 -0.0270709,-0.0400433 -0.0244646,-0.0640039l-0.0303504 -0.0310315c-0.00859055,-0.00877953 -0.0133346,-0.0204685 -0.0133346,-0.0329055 0,-0.0124213 0.00472835,-0.0241024 0.0133346,-0.0328858 0.0177402,-0.0181299 0.046622,-0.0181299 0.0643819,0l0.0303701 0.0310315c0.0217008,-0.00240157 0.0436299,0.00532283 0.0592598,0.021311l0 0c0.0141654,0.0144646 0.0219055,0.0344882 0.021252,0.0549055 -0.000641732,0.0207205 -0.00943701,0.0397087 -0.0247165,0.0534331 -0.0136535,0.0122874 -0.0307992,0.0184409 -0.047937,0.0184409zm-0.0704252 -0.155213c-0.00223228,0 -0.00450394,0.000885827 -0.0062126,0.00263386 -0.00224803,0.00227559 -0.00258268,0.0049685 -0.00258268,0.00635827 0,0.0013937 0.000326772,0.00406693 0.00258268,0.00638189l0.0371693 0.0379803c0.00464173,0.00473622 0.00644488,0.0116417 0.00475197,0.0180866 -0.0035748,0.0136496 0.000677165,0.0279173 0.0111024,0.0372677 0.0132756,0.0118701 0.0340236,0.0118543 0.0472835,-6.29921e-005 0.00759843,-0.00682283 0.0119528,-0.0162362 0.0122835,-0.0264843 0.000326772,-0.010248 -0.00340945,-0.0198937 -0.0105276,-0.0271811l0 0c-0.00904331,-0.00922441 -0.0223583,-0.0128858 -0.0347717,-0.00949606 -0.00632283,0.00172835 -0.0130709,-0.000125984 -0.0176929,-0.00484646l-0.0371693 -0.0379803c-0.00169291,-0.00177165 -0.00394094,-0.00265748 -0.00621654,-0.00265748z"/>
  <path class="fil0" d="M0.25698 1.08278c-0.0809764,0 -0.146862,-0.0673268 -0.146862,-0.150094 0,-0.0827402 0.0658858,-0.150075 0.146862,-0.150075 0.0809803,0 0.146866,0.0673268 0.146866,0.150075 0,0.0827677 -0.0658858,0.150094 -0.146866,0.150094zm0 -0.26265c-0.0607402,0 -0.110154,0.0504882 -0.110154,0.112555 0,0.0620709 0.0494055,0.112575 0.110154,0.112575 0.0607205,0 0.110134,-0.0504882 0.110134,-0.112575 0,-0.0620433 -0.0494134,-0.112555 -0.110134,-0.112555z"/>
  <path class="fil0" d="M0.679193 1.51424c-0.0506063,0 -0.0917756,-0.0420866 -0.0917756,-0.0937953 0,-0.0517323 0.0411693,-0.0937953 0.0917756,-0.0937953 0.0506299,0 0.0917953,0.042063 0.0917953,0.0937953 0,0.0517087 -0.0411732,0.0937953 -0.0917953,0.0937953zm0 -0.150071c-0.0303701,0 -0.0550591,0.0252244 -0.0550591,0.0562756 0,0.0310354 0.024689,0.0562756 0.0550591,0.0562756 0.030374,0 0.055063,-0.0252402 0.055063,-0.0562756 2.3622e-005,-0.0310512 -0.024689,-0.0562756 -0.055063,-0.0562756z"/>
  <path class="fil0" d="M1.46859 0.595024c-0.0506063,0 -0.0917756,-0.042063 -0.0917756,-0.0937913 0,-0.0517087 0.0411693,-0.0937953 0.0917756,-0.0937953 0.0506063,0 0.0917795,0.0420866 0.0917795,0.0937953 0,0.0517283 -0.0411732,0.0937913 -0.0917795,0.0937913zm0 -0.150067c-0.0303701,0 -0.0550827,0.0252402 -0.0550827,0.0562756 0,0.0310551 0.0247126,0.0562992 0.0550827,0.0562992 0.030374,0 0.055063,-0.0252441 0.055063,-0.0562992 0,-0.0310354 -0.0247126,-0.0562756 -0.055063,-0.0562756z"/>
  <path class="fil0" d="M1.2252 1.35609c-0.022437,0 -0.0407008,-0.016563 -0.0407008,-0.0369094 0,-0.0203425 0.0182638,-0.0369055 0.0407008,-0.0369055 0.0224488,0 0.0407087,0.016563 0.0407087,0.0369055 0,0.0203465 -0.0182598,0.0369094 -0.0407087,0.0369094zm0 -0.0525433c-0.00950394,0 -0.0172362,0.00702362 -0.0172362,0.0156457 0,0.00861811 0.00773228,0.015626 0.0172362,0.015626 0.00951575,0 0.017248,-0.00700787 0.017248,-0.015626 0,-0.00862205 -0.00773228,-0.0156457 -0.017248,-0.0156457z"/>
 </g>
</svg>
